<svg id="Layer_1" data-name="Layer 1" xmlns="http://www.w3.org/2000/svg" viewBox="0 0 59.4 76.82"><defs><style>.cls-1{fill:#63c8d8;}.cls-2{fill:#5c5d60;}</style></defs><title>EXOSITE.logo.symbol</title><path class="cls-1" d="M46.93,33.78A12.49,12.49,0,0,1,34.46,21.3V12.48a12.47,12.47,0,1,1,24.95,0V21.3A12.49,12.49,0,0,1,46.93,33.78Z"/><path class="cls-2" d="M46.93,76.82A12.48,12.48,0,0,1,34.46,64.35v-8.6c0-14.58-7.4-22-22-22A12.49,12.49,0,0,1,0,21.3V12.48a12.47,12.47,0,1,1,24.94,0V21.3c0,17.35,13.83,22,22,22A12.48,12.48,0,0,1,59.4,55.76v8.6A12.48,12.48,0,0,1,46.93,76.82Z"/></svg>